<svg width="30" height="30" viewBox="0 0 30 30" fill="none" xmlns="http://www.w3.org/2000/svg">
<path d="M15 0C12.0333 0 9.13319 0.879735 6.66645 2.52796C4.19972 4.17618 2.27713 6.51886 1.14181 9.25975C0.00649941 12.0006 -0.290551 15.0166 0.288228 17.9264C0.867006 20.8361 2.29562 23.5088 4.3934 25.6066C6.49119 27.7044 9.16394 29.133 12.0737 29.7118C14.9834 30.2906 17.9994 29.9935 20.7403 28.8582C23.4812 27.7229 25.8238 25.8003 27.4721 23.3336C29.1203 20.8668 30 17.9667 30 15C30 11.0218 28.4197 7.20644 25.6066 4.3934C22.7936 1.58035 18.9783 0 15 0ZM12 22C11.8684 22.0008 11.7379 21.9755 11.6161 21.9258C11.4943 21.876 11.3834 21.8027 11.29 21.71L5.29001 15.65C5.19677 15.5568 5.12281 15.4461 5.07235 15.3242C5.02189 15.2024 4.99591 15.0719 4.99591 14.94C4.99591 14.6737 5.1017 14.4183 5.29001 14.23C5.47831 14.0417 5.73371 13.9359 6.00001 13.9359C6.26631 13.9359 6.5217 14.0417 6.71001 14.23L12 19.58L23.29 8.29C23.4783 8.1017 23.7337 7.99591 24 7.99591C24.2663 7.99591 24.5217 8.1017 24.71 8.29C24.8983 8.4783 25.0041 8.7337 25.0041 9C25.0041 9.2663 24.8983 9.5217 24.71 9.71L12.71 21.71C12.6166 21.8027 12.5058 21.876 12.3839 21.9258C12.2621 21.9755 12.1316 22.0008 12 22Z" fill="#00B612"/>
</svg>
