<svg xmlns="http://www.w3.org/2000/svg" fill="none" viewBox="59 0 300 300"><path fill="#EE7C3C" d="M59 0h300v300H59z"/><path fill="#464646" d="M183.463 168.681 69.309 300H59V182l60.313-69.084 64.15 55.765Z"/><g filter="url(#filter0_d_450_25)"><path fill="#464646" d="M350.276 222.078 201.5 300l-115.02-.075H59.29v-43l150.19-156.382 140.796 121.535Z"/></g><g filter="url(#filter1_d_450_25)"><path fill="#E7E026" d="m249.511 196.613-51.628 72.698c-.27.38-.625.618-1.005.676-.381.057-.764-.07-1.085-.361-.322-.291-.563-.727-.683-1.237a3.25 3.25 0 0 1 .022-1.565l13.354-49.818H169.67c-.335-.001-.661-.143-.938-.407-.276-.264-.49-.638-.614-1.074a3.254 3.254 0 0 1-.079-1.373 2.71 2.71 0 0 1 .482-1.199l54.592-72.314c.278-.369.639-.592 1.021-.632.382-.041.762.104 1.077.409.315.306.546.754.655 1.27a3.243 3.243 0 0 1-.06 1.564l-14.63 49.345h37.15c.331 0 .654.137.93.395.275.258.489.624.616 1.053.127.429.16.901.096 1.357a2.74 2.74 0 0 1-.457 1.203v.01Z"/></g><g filter="url(#filter2_d_450_25)"><circle cx="123" cy="48" r="30" fill="#E7E026"/></g><g filter="url(#filter3_d_450_25)"><path fill="#464646" d="M359 119 202 300h157V119Z"/></g><defs><filter id="filter0_d_450_25" width="328.985" height="237.457" x="24.291" y="81.543" color-interpolation-filters="sRGB" filterUnits="userSpaceOnUse"><feFlood flood-opacity="0" result="BackgroundImageFix"/><feColorMatrix in="SourceAlpha" result="hardAlpha" type="matrix" values="0 0 0 0 0 0 0 0 0 0 0 0 0 0 0 0 0 0 127 0"/><feOffset dx="-16"/><feGaussianBlur stdDeviation="9.5"/><feComposite in2="hardAlpha" operator="out"/><feColorMatrix type="matrix" values="0 0 0 0 0 0 0 0 0 0 0 0 0 0 0 0 0 0 0.25 0"/><feBlend in2="BackgroundImageFix" mode="normal" result="effect1_dropShadow_450_25"/><feBlend in="SourceGraphic" in2="effect1_dropShadow_450_25" mode="normal" result="shape"/></filter><filter id="filter1_d_450_25" width="90" height="138" x="164" y="140" color-interpolation-filters="sRGB" filterUnits="userSpaceOnUse"><feFlood flood-opacity="0" result="BackgroundImageFix"/><feColorMatrix in="SourceAlpha" result="hardAlpha" type="matrix" values="0 0 0 0 0 0 0 0 0 0 0 0 0 0 0 0 0 0 127 0"/><feOffset dy="4"/><feGaussianBlur stdDeviation="2"/><feComposite in2="hardAlpha" operator="out"/><feColorMatrix type="matrix" values="0 0 0 0 0 0 0 0 0 0 0 0 0 0 0 0 0 0 0.25 0"/><feBlend in2="BackgroundImageFix" mode="normal" result="effect1_dropShadow_450_25"/><feBlend in="SourceGraphic" in2="effect1_dropShadow_450_25" mode="normal" result="shape"/></filter><filter id="filter2_d_450_25" width="86" height="86" x="80" y="5" color-interpolation-filters="sRGB" filterUnits="userSpaceOnUse"><feFlood flood-opacity="0" result="BackgroundImageFix"/><feColorMatrix in="SourceAlpha" result="hardAlpha" type="matrix" values="0 0 0 0 0 0 0 0 0 0 0 0 0 0 0 0 0 0 127 0"/><feMorphology in="SourceAlpha" operator="dilate" radius="4" result="effect1_dropShadow_450_25"/><feOffset/><feGaussianBlur stdDeviation="4.5"/><feComposite in2="hardAlpha" operator="out"/><feColorMatrix type="matrix" values="0 0 0 0 0 0 0 0 0 0 0 0 0 0 0 0 0 0 0.12 0"/><feBlend in2="BackgroundImageFix" mode="normal" result="effect1_dropShadow_450_25"/><feBlend in="SourceGraphic" in2="effect1_dropShadow_450_25" mode="normal" result="shape"/></filter><filter id="filter3_d_450_25" width="195" height="219" x="167" y="100" color-interpolation-filters="sRGB" filterUnits="userSpaceOnUse"><feFlood flood-opacity="0" result="BackgroundImageFix"/><feColorMatrix in="SourceAlpha" result="hardAlpha" type="matrix" values="0 0 0 0 0 0 0 0 0 0 0 0 0 0 0 0 0 0 127 0"/><feOffset dx="-16"/><feGaussianBlur stdDeviation="9.5"/><feComposite in2="hardAlpha" operator="out"/><feColorMatrix type="matrix" values="0 0 0 0 0 0 0 0 0 0 0 0 0 0 0 0 0 0 0.25 0"/><feBlend in2="BackgroundImageFix" mode="normal" result="effect1_dropShadow_450_25"/><feBlend in="SourceGraphic" in2="effect1_dropShadow_450_25" mode="normal" result="shape"/></filter></defs></svg>